<?xml version="1.0" encoding="iso-8859-1"?>
<!-- Generator: Adobe Illustrator 19.0.0, SVG Export Plug-In . SVG Version: 6.00 Build 0)  -->
<svg version="1.1" id="Capa_1" xmlns="http://www.w3.org/2000/svg" xmlns:xlink="http://www.w3.org/1999/xlink" x="0px" y="0px"
	 viewBox="0 0 410.2 410.2" style="enable-background:new 0 0 410.2 410.2;" xml:space="preserve">
<g>
	<g>
		<g>
			<path d="M126.02,209.9H95.1c-26.703,0.066-48.334,21.697-48.4,48.4v15.5c0,2.927,2.373,5.3,5.3,5.3h117.1c0.02,0,0.04,0,0.06,0
				c2.927-0.022,5.282-2.413,5.26-5.34V258.3C174.354,231.597,152.723,209.966,126.02,209.9z M163.82,268.46H57.3V258.3
				c0.109-20.831,16.969-37.691,37.8-37.8h30.92c20.831,0.109,37.691,16.969,37.8,37.8V268.46z"/>
			<path d="M358.26,257.38h-142c-2.671,0.164-4.8,2.294-4.964,4.964c-0.18,2.922,2.043,5.436,4.964,5.616h142
				c2.671-0.164,4.8-2.294,4.964-4.964C363.404,260.074,361.182,257.56,358.26,257.38z"/>
			<path d="M135.48,192.38l0.32-0.3c0.004-0.004,0.008-0.008,0.013-0.013c13.938-13.945,13.933-36.549-0.013-50.487
				c-6.684-6.712-15.767-10.484-25.24-10.48c-9.326-0.004-18.281,3.651-24.94,10.18l-0.32,0.3c-0.004,0.004-0.008,0.008-0.013,0.013
				c-13.938,13.945-13.933,36.549,0.013,50.487C99.115,205.923,121.501,206.057,135.48,192.38z M92.84,149.1l0.26-0.26
				c9.858-9.504,25.504-9.389,35.22,0.26l0.06-0.02c9.809,9.816,9.809,25.724,0,35.54l-0.26,0.26
				c-9.86,9.549-25.551,9.442-35.28-0.24C83.031,174.824,83.031,158.916,92.84,149.1z"/>
			<path d="M374.9,57.38H35.3C15.827,57.435,0.055,73.207,0,92.68v224.84c0.055,19.473,15.827,35.245,35.3,35.3h339.6
				c19.473-0.055,35.245-15.827,35.3-35.3V92.68C410.145,73.207,394.373,57.435,374.9,57.38z M399.62,317.52
				c-0.044,13.634-11.086,24.676-24.72,24.72H35.3c-13.634-0.044-24.676-11.086-24.72-24.72V92.68
				c0.044-13.634,11.086-24.676,24.72-24.72h339.6c13.634,0.044,24.676,11.086,24.72,24.72V317.52z"/>
			<path d="M358.26,142.26h-142c-2.671,0.164-4.8,2.294-4.965,4.965c-0.18,2.922,2.043,5.436,4.965,5.615h142
				c2.671-0.164,4.8-2.294,4.965-4.965C363.404,144.954,361.182,142.44,358.26,142.26z"/>
			<path d="M358.26,199.82h-142c-2.671,0.164-4.8,2.294-4.965,4.965c-0.18,2.922,2.043,5.436,4.965,5.615h142
				c2.671-0.164,4.8-2.294,4.965-4.965C363.404,202.514,361.182,200,358.26,199.82z"/>
			<path d="M358.26,171.04h-142c-2.671,0.164-4.8,2.294-4.965,4.965c-0.18,2.922,2.043,5.436,4.965,5.615h142
				c2.671-0.164,4.8-2.294,4.965-4.965C363.404,173.734,361.182,171.22,358.26,171.04z"/>
			<path d="M358.26,228.6h-142c-2.671,0.164-4.8,2.294-4.964,4.964c-0.18,2.922,2.043,5.436,4.964,5.616h142
				c2.671-0.164,4.8-2.294,4.964-4.964C363.404,231.294,361.182,228.78,358.26,228.6z"/>
		</g>
	</g>
</g>
<g>
</g>
<g>
</g>
<g>
</g>
<g>
</g>
<g>
</g>
<g>
</g>
<g>
</g>
<g>
</g>
<g>
</g>
<g>
</g>
<g>
</g>
<g>
</g>
<g>
</g>
<g>
</g>
<g>
</g>
</svg>
