<svg id="Layer_1" enable-background="new 0 0 511 511" height="512" viewBox="0 0 511 511" width="512" xmlns="http://www.w3.org/2000/svg"><g><path d="m487.5 144c-12.958 0-23.5 10.542-23.5 23.5s10.542 23.5 23.5 23.5 23.5-10.542 23.5-23.5-10.542-23.5-23.5-23.5zm0 32c-4.687 0-8.5-3.813-8.5-8.5s3.813-8.5 8.5-8.5 8.5 3.813 8.5 8.5-3.813 8.5-8.5 8.5z"/><path d="m23.5 296c-12.958 0-23.5 10.542-23.5 23.5s10.542 23.5 23.5 23.5 23.5-10.542 23.5-23.5-10.542-23.5-23.5-23.5zm0 32c-4.687 0-8.5-3.813-8.5-8.5s3.813-8.5 8.5-8.5 8.5 3.813 8.5 8.5-3.813 8.5-8.5 8.5z"/><path d="m55 119.5h-15v16.5h-16.5v15h16.5v16.5h15v-16.5h16.5v-15h-16.5z"/><path d="m487 303.5h-15v16.5h-16.5v15h16.5v16.5h15v-16.5h16.5v-15h-16.5z"/><path d="m215.5 408h16v15h-16z"/><path d="m247.5 408h16v15h-16z"/><path d="m279.5 408h16v15h-16z"/><path d="m391 140.394-84.394-84.394h-186.606v124.673l-48 39.273v147.554h15v-128.173l33 27 84.545 69.173-117.545 96.173v-48.173h-15v71.5h367v-135.5h-15v112.173l-117.545-96.173 49.257-40.301 35.288-28.872 33-27v64.173h15v-83.554l-48-39.273zm-80-58.788 54.394 54.394h-54.394zm-176-10.606h161v80h80v108.219l-45.249 37.022-36.14 29.569-39.111-32-39.111 32-81.389-66.591zm275.49 369h-309.98l154.99-126.81zm-290.49-224h-19.49l19.49-15.946zm-19.49 15h19.49v15.946zm290.49 0h19.49l-19.49 15.946zm19.49-15h-19.49v-15.946z"/><path d="m159.5 88h96v15h-96z"/><path d="m159.5 120h64v15h-64z"/><path d="m223.5 176h128v15h-128z"/><path d="m159.5 176h48v15h-48z"/><path d="m159.5 208h192v15h-192z"/><path d="m159.5 240h144v15h-144z"/></g></svg>