<svg id="Icons" height="512" viewBox="0 0 74 74" width="512" xmlns="http://www.w3.org/2000/svg"><path d="m16.46 34.754a3.254 3.254 0 1 1 3.248-3.254 3.255 3.255 0 0 1 -3.248 3.254zm0-4.509a1.254 1.254 0 1 0 1.248 1.255 1.253 1.253 0 0 0 -1.248-1.254z"/><path d="m48.965 61.8h-8.641a1 1 0 0 1 -.971-1.24l.859-3.468h-11.229l-1.209 3.694a1 1 0 0 1 -.95.689h-8.9a1 1 0 0 1 -.983-1.183l.98-5.292c-1.524-.809-4.975-3-6.21-6.821-2.278-.29-8.717-2-9.706-12.009a1 1 0 0 1 .672-1.044l4.673-1.589a13.59 13.59 0 0 1 3.314-8.267c-1.636-1.085-4.411-3.37-5.271-6.81a1 1 0 0 1 .43-1.084 20.141 20.141 0 0 1 15.833-1.576c2.273-1.254 13.616-6.85 25.509-1 .465.189 12.836 5.4 15.451 15.857.128.446 3.16 11.911-12.888 30.79a1 1 0 0 1 -.763.353zm-7.364-2h6.9c15.026-17.862 12.213-28.521 12.183-28.628-2.376-9.5-14.223-14.5-14.342-14.553-12.109-5.95-23.928 1.048-24.045 1.12a1.01 1.01 0 0 1 -.816.1 18.936 18.936 0 0 0 -13.92.867c1.307 3.529 5.181 5.479 5.222 5.5a1 1 0 0 1 .17 1.687c-3.648 2.831-3.627 8.3-3.626 8.356a1 1 0 0 1 -.677.959l-4.563 1.555c1.293 9.527 8.077 9.479 8.375 9.48a.988.988 0 0 1 1 .769c1.032 4.345 5.928 6.487 5.978 6.508a1 1 0 0 1 .591 1.1l-.9 4.849h6.969l1.209-3.694a1 1 0 0 1 .95-.689h13.231a1 1 0 0 1 .971 1.24z"/><path d="m46.162 22.929a1 1 0 0 1 -.678-.265c-6.718-6.2-16.773-2.1-16.873-2.055a1 1 0 0 1 -.775-1.844c.459-.192 11.334-4.651 19 2.429a1 1 0 0 1 -.679 1.735z"/><path d="m68.567 34.739a3.577 3.577 0 0 1 -1.507-.331 4.361 4.361 0 0 1 -2.549-3.739c-.021-.111-.064-.366-.1-.725a11.5 11.5 0 0 0 -2.034 1.638 1 1 0 0 1 -1.458-1.369 11.77 11.77 0 0 1 3.456-2.513 7.762 7.762 0 0 1 1.456-4.141 1 1 0 0 1 1.582 1.224 5.2 5.2 0 0 0 -.938 2.277 4.752 4.752 0 0 1 3.938 1.171c1.019.943 2.482 3.225.872 5.237a3.48 3.48 0 0 1 -2.718 1.271zm-2.213-5.645a9.444 9.444 0 0 0 .127 1.229.947.947 0 0 1 .016.105 2.426 2.426 0 0 0 1.4 2.165 1.546 1.546 0 0 0 1.822-.376c.862-1.078-.636-2.487-.651-2.5a2.942 2.942 0 0 0 -2.714-.623z"/></svg>